<?xml version="1.0" standalone="no"?>
<!DOCTYPE svg PUBLIC "-//W3C//DTD SVG 20010904//EN"
 "http://www.w3.org/TR/2001/REC-SVG-20010904/DTD/svg10.dtd">
<svg version="1.0" xmlns="http://www.w3.org/2000/svg"
 width="260.000000pt" height="260.000000pt" viewBox="0 0 260.000000 260.000000"
 preserveAspectRatio="xMidYMid meet">
<metadata>
Created by potrace 1.14, written by Peter Selinger 2001-2017
</metadata>
<g transform="translate(0.000000,260.000000) scale(0.100000,-0.100000)"
fill="#000000" stroke="none">
<path d="M0 1300 l0 -1300 1300 0 1300 0 0 1300 0 1300 -1300 0 -1300 0 0
-1300z m2451 735 c70 -36 89 -50 85 -63 -3 -13 -228 -875 -337 -1293 l-9 -36
-148 -13 -148 -12 -89 45 -89 44 -178 644 c-97 354 -178 647 -178 650 0 3 73
12 161 19 l162 13 88 -44 c81 -39 90 -47 99 -79 5 -19 24 -93 41 -165 18 -71
34 -124 36 -118 2 6 26 102 52 212 27 111 50 204 53 206 3 3 70 11 149 19 79
7 147 14 152 15 4 0 48 -19 98 -44z m-1616 -24 c354 -128 479 -303 480 -676 0
-169 -19 -262 -77 -385 -74 -154 -215 -266 -385 -306 -36 -8 -163 -24 -281
-34 l-214 -19 -89 44 -89 45 0 665 0 665 23 1 c12 0 81 7 152 14 192 20 404
14 480 -14z"/>
<path d="M2202 2044 c-73 -7 -135 -13 -137 -15 -10 -10 -169 -717 -179 -799
-11 -78 -14 -89 -19 -60 -4 19 -14 73 -22 120 -9 47 -50 227 -93 400 l-78 315
-100 -3 c-55 -2 -120 -6 -146 -10 l-46 -7 173 -628 c95 -346 174 -629 176
-631 6 -5 259 20 265 26 6 7 346 1300 342 1302 -2 1 -63 -4 -136 -10z"/>
<path d="M400 2010 c-107 -10 -196 -18 -197 -19 -2 0 -3 -291 -3 -646 0 -547
2 -645 14 -645 62 0 395 33 449 45 222 48 397 233 442 468 20 105 20 316 -1
414 -50 246 -197 379 -434 396 -41 3 -163 -3 -270 -13z m320 -273 c88 -43 129
-150 130 -335 0 -179 -46 -294 -143 -359 -56 -38 -98 -51 -184 -60 l-63 -6 0
391 0 391 53 4 c85 7 159 -3 207 -26z"/>
<path d="M660 1350 c0 -170 4 -310 8 -310 18 0 78 53 104 92 40 59 49 98 55
231 6 122 -6 217 -33 269 -13 26 -19 28 -74 28 l-60 0 0 -310z"/>
</g>
</svg>
